# xmcd
#
# Track frame offsets:
#	150
#	15387
#	32790
#	58465
#	82920
#	109162
#	140875
#	157360
#	173052
#	193315
#	218345
#	239912
#	256020
#
# Disc length: 3743 seconds
#
# Revision: 1
# Processed by: cddbd v1.4PL0 Copyright (c) Steve Scherf et al.
# Submitted via: EasyCDDAExtractor 5.1.0
#
DISCID=bd0e9d0d
DTITLE=Chris Finnen - The Chris Finnen Blues Band Live
DYEAR=1995
DGENRE=Blues
TTITLE0=Weepin' Spell
TTITLE1=Horn Rimmed Hoodoo
TTITLE2=Old Dog New Tricks
TTITLE3=32/20
TTITLE4=Sugar Mama
TTITLE5=Hoochie Coochie man
TTITLE6=Dr. BRown
TTITLE7=Gamblin' Blues
TTITLE8=T.H.C.
TTITLE9=Tribute to Roy Buchanan
TTITLE10=Everyday I Have the Blues
TTITLE11=Loved Another Woman
TTITLE12=Voodoo Chile
EXTD=
EXTT0=
EXTT1=
EXTT2=
EXTT3=
EXTT4=
EXTT5=
EXTT6=
EXTT7=
EXTT8=
EXTT9=
EXTT10=
EXTT11=
EXTT12=
PLAYORDER=
